<svg clip-rule="evenodd" fill-rule="evenodd" stroke-linejoin="round" stroke-miterlimit="1.4142" version="1.1" viewBox="0 0 24 24" width="16px" height="16px" xml:space="preserve" xmlns="http://www.w3.org/2000/svg">
  <path fill="#7B1FA2" data-folderColor="Application" d="M20,18H4V8H20M20,6H12L10,4H4C2.89,4 2,4.89 2,6V18A2,2 0 0,0 4,20H20A2,2 0 0,0 22,18V8C22,6.89 21.1,6 20,6Z"/>
  <path d="M12 10h11v7.2H12V10zm1.4 1.4v4.4h8.2v-4.4h-8.2zm3.1 6.5h2v1.1h3v1.4h-8v-1.4h3v-1.1zm-.3-5.9 3.3 2-3.3 2v-4z" fill="#E1BEE7" data-folderIconColor="Application"/>
</svg>
