<svg clip-rule="evenodd" fill-rule="evenodd" stroke-linejoin="round" stroke-miterlimit="1.4142" version="1.1" viewBox="0 0 24 24" width="16px" height="16px" xml:space="preserve" xmlns="http://www.w3.org/2000/svg">
  <path fill="#43A047" data-folderColor="Areas" d="M20,18H4V8H20M20,6H12L10,4H4C2.89,4 2,4.89 2,6V18A2,2 0 0,0 4,20H20A2,2 0 0,0 22,18V8C22,6.89 21.1,6 20,6Z"/>
  <path d="M12 9.6h4.8v4.8H12V9.6zm6.2 0H23v4.8h-4.8V9.6zM12 15.8h4.8v4.8H12v-4.8zm6.2 0H23v4.8h-4.8v-4.8z" fill="#C8E6C9" data-folderIconColor="Areas"/>
</svg>
