<svg clip-rule="evenodd" fill-rule="evenodd" stroke-linejoin="round" stroke-miterlimit="1.4142" version="1.1" viewBox="0 0 24 24" width="16px" height="16px" xml:space="preserve" xmlns="http://www.w3.org/2000/svg">
  <path fill="#D81B60" data-folderColor="Attributes" d="M20,18H4V8H20M20,6H12L10,4H4C2.89,4 2,4.89 2,6V18A2,2 0 0,0 4,20H20A2,2 0 0,0 22,18V8C22,6.89 21.1,6 20,6Z"/>
  <path d="M12.4 9.3h6.2l4.4 4.4-7.2 7.2-4.4-4.4V10.3c0-.55.45-1 1-1zm1.5 2.1a1.1 1.1 0 1 0 0 2.2 1.1 1.1 0 0 0 0-2.2zm3.1 2.2h1.4v5.3H17v-5.3zm-2 1.9h5.4v1.4H15v-1.4z" fill="#F8BBD0" data-folderIconColor="Attributes"/>
</svg>
