<svg clip-rule="evenodd" fill-rule="evenodd" stroke-linejoin="round" stroke-miterlimit="1.4142" version="1.1"
     viewBox="0 0 24 24" width="16px" height="16px" xml:space="preserve" xmlns="http://www.w3.org/2000/svg">
  <path fill="#546E7A" data-folderColor="Common"
        d="M20,18H4V8H20M20,6H12L10,4H4C2.89,4 2,4.89 2,6V18A2,2 0 0,0 4,20H20A2,2 0 0,0 22,18V8C22,6.89 21.1,6 20,6Z"/>
  <path d="M14.6 10.1a1.6 1.6 0 1 0 0 3.2 1.6 1.6 0 0 0 0-3.2zm6 0a1.6 1.6 0 1 0 0 3.2 1.6 1.6 0 0 0 0-3.2zm-3 6a1.6 1.6 0 1 0 0 3.2 1.6 1.6 0 0 0 0-3.2zm-2.25-3.05-1.1 1.9 2.25 1.3 1.1-1.9-2.25-1.3zm4.5 0-2.25 1.3 1.1 1.9 2.25-1.3-1.1-1.9z"
        fill="#CFD8DC" data-folderIconColor="Common"/>
</svg>
