<svg clip-rule="evenodd" fill-rule="evenodd" stroke-linejoin="round" stroke-miterlimit="1.4142" version="1.1" viewBox="0 0 24 24" width="16px" height="16px" xml:space="preserve" xmlns="http://www.w3.org/2000/svg">
  <path fill="#303F9F" data-folderColor="Commands" d="M20,18H4V8H20M20,6H12L10,4H4C2.89,4 2,4.89 2,6V18A2,2 0 0,0 4,20H20A2,2 0 0,0 22,18V8C22,6.89 21.1,6 20,6Z"/>
  <path d="M12 10h11v9.5H12V10zm1.4 2.1 2.4 2.1-2.4 2.1v-1.8l.7-.3-.7-.3v-1.8zm3.5 4.7h4.2v1.3h-4.2v-1.3z" fill="#C5CAE9" data-folderIconColor="Commands"/>
</svg>
