<svg clip-rule="evenodd" fill-rule="evenodd" stroke-linejoin="round" stroke-miterlimit="1.4142" version="1.1" viewBox="0 0 24 24" width="16px" height="16px" xml:space="preserve" xmlns="http://www.w3.org/2000/svg">
  <path fill="#00897B" data-folderColor="DTO" d="M20,18H4V8H20M20,6H12L10,4H4C2.89,4 2,4.89 2,6V18A2,2 0 0,0 4,20H20A2,2 0 0,0 22,18V8C22,6.89 21.1,6 20,6Z"/>
  <path d="M12.2 9.5h4.9l1.6 1.6v6.5h-6.5V9.5zm1.2 1.2v5.7h4.1v-4.6h-1.2v-1.1h-2.9zm4.9 4.2h2.1v-1.5l2.8 2.5-2.8 2.5v-1.5h-2.1v-2z" fill="#B2DFDB" data-folderIconColor="DTO"/>
</svg>
