<svg clip-rule="evenodd" fill-rule="evenodd" stroke-linejoin="round" stroke-miterlimit="1.4142" version="1.1" viewBox="0 0 24 24" width="16px" height="16px" xml:space="preserve" xmlns="http://www.w3.org/2000/svg">
  <path fill="#D32F2F" data-folderColor="Exceptions" d="M20,18H4V8H20M20,6H12L10,4H4C2.89,4 2,4.89 2,6V18A2,2 0 0,0 4,20H20A2,2 0 0,0 22,18V8C22,6.89 21.1,6 20,6Z"/>
  <path d="M17.5 9.2 23.5 20h-12l6-10.8zm-.8 4.1v3.4h1.6v-3.4h-1.6zm0 4.4v1.5h1.6v-1.5h-1.6z" fill="#FFCDD2" data-folderIconColor="Exceptions"/>
</svg>
