<svg clip-rule="evenodd" fill-rule="evenodd" stroke-linejoin="round" stroke-miterlimit="1.4142" version="1.1" viewBox="0 0 24 24" width="16px" height="16px" xml:space="preserve" xmlns="http://www.w3.org/2000/svg">
  <path fill="#EF6C00" data-folderColor="Handlers" d="M20,18H4V8H20M20,6H12L10,4H4C2.89,4 2,4.89 2,6V18A2,2 0 0,0 4,20H20A2,2 0 0,0 22,18V8C22,6.89 21.1,6 20,6Z"/>
  <path d="M12 10h11v9.5H12V10zm1.4 1.5v2.8h2.4v1.5h-2.4V18h8.2v-2.2h-2.4v-1.5h2.4v-2.8h-8.2zm3.4 1.1 3 2.4-3 2.4v-1.6h-1.9v-1.6h1.9v-1.6z" fill="#FFE0B2" data-folderIconColor="Handlers"/>
</svg>
