<svg clip-rule="evenodd" fill-rule="evenodd" stroke-linejoin="round" stroke-miterlimit="1.4142" version="1.1" viewBox="0 0 24 24" width="16px" height="16px" xml:space="preserve" xmlns="http://www.w3.org/2000/svg">
  <path fill="#6D4C41" data-folderColor="Infrastructure" d="M20,18H4V8H20M20,6H12L10,4H4C2.89,4 2,4.89 2,6V18A2,2 0 0,0 4,20H20A2,2 0 0,0 22,18V8C22,6.89 21.1,6 20,6Z"/>
  <path d="M12 19h11v1.7H12V19zm.6-7.2 4.9-2.6 4.9 2.6v1.4h-9.8v-1.4zm.7 2.4h1.6v4h-1.6v-4zm3.4 0h1.6v4h-1.6v-4zm3.4 0h1.6v4h-1.6v-4z" fill="#D7CCC8" data-folderIconColor="Infrastructure"/>
</svg>
