<svg clip-rule="evenodd" fill-rule="evenodd" stroke-linejoin="round" stroke-miterlimit="1.4142" version="1.1" viewBox="0 0 24 24" width="16px" height="16px" xml:space="preserve" xmlns="http://www.w3.org/2000/svg">
  <path fill="#1976D2" data-folderColor="Interfaces" d="M20,18H4V8H20M20,6H12L10,4H4C2.89,4 2,4.89 2,6V18A2,2 0 0,0 4,20H20A2,2 0 0,0 22,18V8C22,6.89 21.1,6 20,6Z"/>
  <path d="M13 9.5h7v2.2h1.5v3.1H20v2.2h-7v-2.2h-1.5v-3.1H13V9.5zm1.5 1.5v4.5h4V11h-4zm8 1h1v2.5h-1V12zM10 12h1v2.5h-1V12z" fill="#BBDEFB" data-folderIconColor="Interfaces"/>
</svg>
