<svg clip-rule="evenodd" fill-rule="evenodd" stroke-linejoin="round" stroke-miterlimit="1.4142" version="1.1" viewBox="0 0 24 24" width="16px" height="16px" xml:space="preserve" xmlns="http://www.w3.org/2000/svg">
  <path fill="#2E7D32" data-folderColor="Migrations" d="M20,18H4V8H20M20,6H12L10,4H4C2.89,4 2,4.89 2,6V18A2,2 0 0,0 4,20H20A2,2 0 0,0 22,18V8C22,6.89 21.1,6 20,6Z"/>
  <path d="M17.5 9.1c3 0 5.5 1 5.5 2.3s-2.5 2.3-5.5 2.3-5.5-1-5.5-2.3 2.5-2.3 5.5-2.3zm-5.5 3.8c.9 1 3 1.6 5.5 1.6s4.6-.6 5.5-1.6v2.2c0 1.3-2.5 2.3-5.5 2.3s-5.5-1-5.5-2.3v-2.2zm4.8 3.1h1.4v2.3h1.6l-2.3 2.3-2.3-2.3h1.6V16z" fill="#C8E6C9" data-folderIconColor="Migrations"/>
</svg>
