<svg clip-rule="evenodd" fill-rule="evenodd" stroke-linejoin="round" stroke-miterlimit="1.4142" version="1.1" viewBox="0 0 24 24" width="16px" height="16px" xml:space="preserve" xmlns="http://www.w3.org/2000/svg">
  <path fill="#607D8B" data-folderColor="Options" d="M20,18H4V8H20M20,6H12L10,4H4C2.89,4 2,4.89 2,6V18A2,2 0 0,0 4,20H20A2,2 0 0,0 22,18V8C22,6.89 21.1,6 20,6Z"/>
  <path d="M12 11h5v1.5h-5V11zm7 0h4v1.5h-4V11zm-2.2-1h2.2v3.5h-2.2V10zM12 15h2.5v1.5H12V15zm4.5 0H23v1.5h-6.5V15zm-2.2-1h2.2v3.5h-2.2V14zM12 19h7v1.5h-7V19zm9 0h2v1.5h-2V19zm-2.2-1h2.2v3.5h-2.2V18z" fill="#CFD8DC" data-folderIconColor="Options"/>
</svg>
