<svg clip-rule="evenodd" fill-rule="evenodd" stroke-linejoin="round" stroke-miterlimit="1.4142" version="1.1" viewBox="0 0 24 24" width="16px" height="16px" xml:space="preserve" xmlns="http://www.w3.org/2000/svg">
  <path fill="#5E35B1" data-folderColor="Pages" d="M20,18H4V8H20M20,6H12L10,4H4C2.89,4 2,4.89 2,6V18A2,2 0 0,0 4,20H20A2,2 0 0,0 22,18V8C22,6.89 21.1,6 20,6Z"/>
  <path d="M13.8 9.2h5.4l2 2v8.8h-7.4V9.2zm1.4 1.4v8h4.6v-6.3h-1.7v-1.7h-2.9zM11.5 11h1.4v10h7.2v1.3h-8.6V11z" fill="#D1C4E9" data-folderIconColor="Pages"/>
</svg>
