<svg clip-rule="evenodd" fill-rule="evenodd" stroke-linejoin="round" stroke-miterlimit="1.4142" version="1.1"
     viewBox="0 0 24 24" width="16px" height="16px" xml:space="preserve" xmlns="http://www.w3.org/2000/svg">
  <path fill="#FB8C00" data-folderColor="Service"
        d="M20,18H4V8H20M20,6H12L10,4H4C2.89,4 2,4.89 2,6V18A2,2 0 0,0 4,20H20A2,2 0 0,0 22,18V8C22,6.89 21.1,6 20,6Z"/>
  <path d="M13 9h4v4h-1.2v2.2h3.4V13H18V9h4v4h-1.2v3.8h-5v-3.8H14.6v3.8h-1.4V13H12V9h1zm.4 1.2v1.6h2.2v-1.6h-2.2zm5 0v1.6h2.2v-1.6h-2.2zm-3.8 6.4v2.2h1.2v-2.2h-1.2z"
        fill="#FFE0B2" data-folderIconColor="Service"/>
</svg>
