<svg clip-rule="evenodd" fill-rule="evenodd" stroke-linejoin="round" stroke-miterlimit="1.4142" version="1.1" viewBox="0 0 24 24" width="16px" height="16px" xml:space="preserve" xmlns="http://www.w3.org/2000/svg">
  <path fill="#0288D1" data-folderColor="Validators" d="M20,18H4V8H20M20,6H12L10,4H4C2.89,4 2,4.89 2,6V18A2,2 0 0,0 4,20H20A2,2 0 0,0 22,18V8C22,6.89 21.1,6 20,6Z"/>
  <path d="M17.5 9.2 23 11.4v3.8c0 3.1-2.3 5.1-5.5 6.2-3.2-1.1-5.5-3.1-5.5-6.2v-3.8l5.5-2.2zm-1.1 7.6 4.1-4.2 1.2 1.2-5.3 5.4-3-3 1.2-1.2 1.8 1.8z" fill="#B3E5FC" data-folderIconColor="Validators"/>
</svg>
