<svg clip-rule="evenodd" fill-rule="evenodd" stroke-linejoin="round" stroke-miterlimit="1.4142" version="1.1" viewBox="0 0 24 24" width="16px" height="16px" xml:space="preserve" xmlns="http://www.w3.org/2000/svg">
  <path fill="#AF6C00" data-folderColor="Workers" d="M20,18H4V8H20M20,6H12L10,4H4C2.89,4 2,4.89 2,6V18A2,2 0 0,0 4,20H20A2,2 0 0,0 22,18V8C22,6.89 21.1,6 20,6Z"/>
  <path d="M17.5 9.4a5.6 5.6 0 1 1 0 11.2 5.6 5.6 0 0 1 0-11.2zm-.8 2.2v4.2l3.4 2 .8-1.3-2.6-1.5v-3.4h-1.6zM12 18.9h2.1v1.5H12v-1.5zm8.9-8.3 1.1-1.1 1.4 1.4-1.1 1.1-1.4-1.4z" fill="#FFE0B2" data-folderIconColor="Workers"/>
</svg>
