<svg clip-rule="evenodd" fill-rule="evenodd" stroke-linejoin="round" stroke-miterlimit="1.4142" version="1.1" viewBox="0 0 24 24" width="16px" height="16px" xml:space="preserve" xmlns="http://www.w3.org/2000/svg">
  <path d="m10 4h-6c-1.11 0-2 .89-2 2v12c0 1.097.903 2 2 2h16c1.097 0 2-.903 2-2v-10c0-1.11-.9-2-2-2h-8l-2-2z" fill="#455A64" fill-rule="nonzero" data-folderColor="Abstractions"/>
  <path d="M14.8 10.2 11.6 13l3.2 2.8v-2.1L13.9 13l.9-.7v-2.1zm5.4 0v2.1l.9.7-.9.7v2.1l3.2-2.8-3.2-2.8zm-4.2 7.9h4v2h-4v-2zm.6-8.2h2.8v1.8h-2.8V9.9zm0 3.2h2.8v1.8h-2.8v-1.8z" fill="#CFD8DC" data-folderIconColor="Abstractions"/>
</svg>
