<svg clip-rule="evenodd" fill-rule="evenodd" stroke-linejoin="round" stroke-miterlimit="1.4142" version="1.1" viewBox="0 0 24 24" width="16px" height="16px" xml:space="preserve" xmlns="http://www.w3.org/2000/svg">
  <path d="m10 4h-6c-1.11 0-2 .89-2 2v12c0 1.097.903 2 2 2h16c1.097 0 2-.903 2-2v-10c0-1.11-.9-2-2-2h-8l-2-2z" fill="#7B1FA2" fill-rule="nonzero" data-folderColor="Application"/>
  <path d="M12 10h11v7.2H12V10zm1.4 1.4v4.4h8.2v-4.4h-8.2zm3.1 6.5h2v1.1h3v1.4h-8v-1.4h3v-1.1zm-.3-5.9 3.3 2-3.3 2v-4z" fill="#E1BEE7" data-folderIconColor="Application"/>
</svg>
