<svg clip-rule="evenodd" fill-rule="evenodd" stroke-linejoin="round" stroke-miterlimit="1.4142" version="1.1" viewBox="0 0 24 24" width="16px" height="16px" xml:space="preserve" xmlns="http://www.w3.org/2000/svg">
  <path d="m10 4h-6c-1.11 0-2 .89-2 2v12c0 1.097.903 2 2 2h16c1.097 0 2-.903 2-2v-10c0-1.11-.9-2-2-2h-8l-2-2z" fill="#D81B60" fill-rule="nonzero" data-folderColor="Attributes"/>
  <path d="M12.4 9.3h6.2l4.4 4.4-7.2 7.2-4.4-4.4V10.3c0-.55.45-1 1-1zm1.5 2.1a1.1 1.1 0 1 0 0 2.2 1.1 1.1 0 0 0 0-2.2zm3.1 2.2h1.4v5.3H17v-5.3zm-2 1.9h5.4v1.4H15v-1.4z" fill="#F8BBD0" data-folderIconColor="Attributes"/>
</svg>
