<svg clip-rule="evenodd" fill-rule="evenodd" stroke-linejoin="round" stroke-miterlimit="1.4142" version="1.1"
     viewBox="0 0 24 24" width="16px" height="16px" xml:space="preserve" xmlns="http://www.w3.org/2000/svg">
  <path d="m10 4h-6c-1.11 0-2 .89-2 2v12c0 1.097.903 2 2 2h16c1.097 0 2-.903 2-2v-10c0-1.11-.9-2-2-2h-8l-2-2z"
        fill="#546E7A" fill-rule="nonzero" data-folderColor="Common"/>
  <path d="M14.6 10.1a1.6 1.6 0 1 0 0 3.2 1.6 1.6 0 0 0 0-3.2zm6 0a1.6 1.6 0 1 0 0 3.2 1.6 1.6 0 0 0 0-3.2zm-3 6a1.6 1.6 0 1 0 0 3.2 1.6 1.6 0 0 0 0-3.2zm-2.25-3.05-1.1 1.9 2.25 1.3 1.1-1.9-2.25-1.3zm4.5 0-2.25 1.3 1.1 1.9 2.25-1.3-1.1-1.9z"
        fill="#CFD8DC" data-folderIconColor="Common"/>
</svg>
