<svg clip-rule="evenodd" fill-rule="evenodd" stroke-linejoin="round" stroke-miterlimit="1.4142" version="1.1" viewBox="0 0 24 24" width="16px" height="16px" xml:space="preserve" xmlns="http://www.w3.org/2000/svg">
  <path d="m10 4h-6c-1.11 0-2 .89-2 2v12c0 1.097.903 2 2 2h16c1.097 0 2-.903 2-2v-10c0-1.11-.9-2-2-2h-8l-2-2z" fill="#558B2F" fill-rule="nonzero" data-folderColor="Data"/>
  <path d="M12 10h11v10H12V10zm1.2 1.2v1.8h8.6v-1.8h-8.6zm0 3v1.7h2.2v-1.7h-2.2zm3.4 0v1.7h2.2v-1.7h-2.2zm3.4 0v1.7h1.8v-1.7H20zm-6.8 2.9v1.7h2.2v-1.7h-2.2zm3.4 0v1.7h2.2v-1.7h-2.2zm3.4 0v1.7h1.8v-1.7H20z" fill="#DCEDC8" data-folderIconColor="Data"/>
</svg>
