<svg clip-rule="evenodd" fill-rule="evenodd" stroke-linejoin="round" stroke-miterlimit="1.4142" version="1.1" viewBox="0 0 24 24" width="16px" height="16px" xml:space="preserve" xmlns="http://www.w3.org/2000/svg">
  <path d="m10 4h-6c-1.11 0-2 .89-2 2v12c0 1.097.903 2 2 2h16c1.097 0 2-.903 2-2v-10c0-1.11-.9-2-2-2h-8l-2-2z" fill="#00897B" fill-rule="nonzero" data-folderColor="DTO"/>
  <path d="M12.2 9.5h4.9l1.6 1.6v6.5h-6.5V9.5zm1.2 1.2v5.7h4.1v-4.6h-1.2v-1.1h-2.9zm4.9 4.2h2.1v-1.5l2.8 2.5-2.8 2.5v-1.5h-2.1v-2z" fill="#B2DFDB" data-folderIconColor="DTO"/>
</svg>
