<svg clip-rule="evenodd" fill-rule="evenodd" stroke-linejoin="round" stroke-miterlimit="1.4142" version="1.1"
     viewBox="0 0 24 24" width="16px" height="16px" xml:space="preserve" xmlns="http://www.w3.org/2000/svg">
  <path d="m10 4h-6c-1.11 0-2 .89-2 2v12c0 1.097.903 2 2 2h16c1.097 0 2-.903 2-2v-10c0-1.11-.9-2-2-2h-8l-2-2z"
        fill="#5E35B1" fill-rule="nonzero" data-folderColor="Entity"/>
  <path d="M17.5 8.8 12 11.7v6.4l5.5 3.1 5.5-3.1v-6.4l-5.5-2.9zm0 1.95 2.95 1.55-2.95 1.65-2.95-1.65 2.95-1.55zm-3.55 3.15 2.65 1.48v3.25l-2.65-1.5V13.9zm7.1 0v3.23l-2.65 1.5v-3.25l2.65-1.48z"
        fill="#D1C4E9" data-folderIconColor="Entity"/>
</svg>
