<svg clip-rule="evenodd" fill-rule="evenodd" stroke-linejoin="round" stroke-miterlimit="1.4142" version="1.1" viewBox="0 0 24 24" width="16px" height="16px" xml:space="preserve" xmlns="http://www.w3.org/2000/svg">
  <path d="m10 4h-6c-1.11 0-2 .89-2 2v12c0 1.097.903 2 2 2h16c1.097 0 2-.903 2-2v-10c0-1.11-.9-2-2-2h-8l-2-2z" fill="#F9A825" fill-rule="nonzero" data-folderColor="Enums"/>
  <path d="M13 10.2h2v2h-2v-2zm3.5.3H23V12h-6.5v-1.5zM13 14h2v2h-2v-2zm3.5.3H23v1.5h-6.5v-1.5zM13 17.8h2v2h-2v-2zm3.5.3H23v1.5h-6.5v-1.5z" fill="#FFF9C4" data-folderIconColor="Enums"/>
</svg>
