<svg clip-rule="evenodd" fill-rule="evenodd" stroke-linejoin="round" stroke-miterlimit="1.4142" version="1.1"
     viewBox="0 0 24 24" width="16px" height="16px" xml:space="preserve" xmlns="http://www.w3.org/2000/svg">
  <path d="m10 4h-6c-1.11 0-2 .89-2 2v12c0 1.097.903 2 2 2h16c1.097 0 2-.903 2-2v-10c0-1.11-.9-2-2-2h-8l-2-2z"
        fill="#00838F" fill-rule="nonzero" data-folderColor="Extension"/>
  <path d="M12.2 11.2h2.2v-1.1c0-.55.45-1 1-1h4.2c.55 0 1 .45 1 1v1.1h2.2v2.2h-2.2v1.1c0 .55-.45 1-1 1h-4.2c-.55 0-1-.45-1-1v-1.1h-2.2v-2.2zm4 0v2.2h2.6v-2.2h-2.6zm-2.7 6.1h3.1v-1.2h1.8v1.2h3.1v1.8h-3.1v1.2h-1.8v-1.2h-3.1v-1.8z"
        fill="#B2EBF2" data-folderIconColor="Extension"/>
</svg>
