<svg clip-rule="evenodd" fill-rule="evenodd" stroke-linejoin="round" stroke-miterlimit="1.4142" version="1.1" viewBox="0 0 24 24" width="16px" height="16px" xml:space="preserve" xmlns="http://www.w3.org/2000/svg">
  <path d="m10 4h-6c-1.11 0-2 .89-2 2v12c0 1.097.903 2 2 2h16c1.097 0 2-.903 2-2v-10c0-1.11-.9-2-2-2h-8l-2-2z" fill="#EF6C00" fill-rule="nonzero" data-folderColor="Handlers"/>
  <path d="M12 10h11v9.5H12V10zm1.4 1.5v2.8h2.4v1.5h-2.4V18h8.2v-2.2h-2.4v-1.5h2.4v-2.8h-8.2zm3.4 1.1 3 2.4-3 2.4v-1.6h-1.9v-1.6h1.9v-1.6z" fill="#FFE0B2" data-folderIconColor="Handlers"/>
</svg>
