<svg clip-rule="evenodd" fill-rule="evenodd" stroke-linejoin="round" stroke-miterlimit="1.4142" version="1.1" viewBox="0 0 24 24" width="16px" height="16px" xml:space="preserve" xmlns="http://www.w3.org/2000/svg">
  <path d="m10 4h-6c-1.11 0-2 .89-2 2v12c0 1.097.903 2 2 2h16c1.097 0 2-.903 2-2v-10c0-1.11-.9-2-2-2h-8l-2-2z" fill="#6D4C41" fill-rule="nonzero" data-folderColor="Infrastructure"/>
  <path d="M12 19h11v1.7H12V19zm.6-7.2 4.9-2.6 4.9 2.6v1.4h-9.8v-1.4zm.7 2.4h1.6v4h-1.6v-4zm3.4 0h1.6v4h-1.6v-4zm3.4 0h1.6v4h-1.6v-4z" fill="#D7CCC8" data-folderIconColor="Infrastructure"/>
</svg>
