<svg clip-rule="evenodd" fill-rule="evenodd" stroke-linejoin="round" stroke-miterlimit="1.4142" version="1.1" viewBox="0 0 24 24" width="16px" height="16px" xml:space="preserve" xmlns="http://www.w3.org/2000/svg">
  <path d="m10 4h-6c-1.11 0-2 .89-2 2v12c0 1.097.903 2 2 2h16c1.097 0 2-.903 2-2v-10c0-1.11-.9-2-2-2h-8l-2-2z" fill="#1976D2" fill-rule="nonzero" data-folderColor="Interfaces"/>
  <path d="M13 9.5h7v2.2h1.5v3.1H20v2.2h-7v-2.2h-1.5v-3.1H13V9.5zm1.5 1.5v4.5h4V11h-4zm8 1h1v2.5h-1V12zM10 12h1v2.5h-1V12z" fill="#BBDEFB" data-folderIconColor="Interfaces"/>
</svg>
