<svg clip-rule="evenodd" fill-rule="evenodd" stroke-linejoin="round" stroke-miterlimit="1.4142" version="1.1" viewBox="0 0 24 24" width="16px" height="16px" xml:space="preserve" xmlns="http://www.w3.org/2000/svg">
  <path d="m10 4h-6c-1.11 0-2 .89-2 2v12c0 1.097.903 2 2 2h16c1.097 0 2-.903 2-2v-10c0-1.11-.9-2-2-2h-8l-2-2z" fill="#7CB342" fill-rule="nonzero" data-folderColor="Mappings"/>
  <path d="M12 10h4.2v3H12v-3zm6.8 0H23v3h-4.2v-3zm-2.2 1h1.8v1.2h-1.8V11zm-3.8 5.2H17v3h-4.2v-3zm6.8 0h4.2v3h-4.2v-3zm-2.2 1h1.8v1.2h-1.8v-1.2z" fill="#DCEDC8" data-folderIconColor="Mappings"/>
</svg>
