<svg clip-rule="evenodd" fill-rule="evenodd" stroke-linejoin="round" stroke-miterlimit="1.4142" version="1.1" viewBox="0 0 24 24" width="16px" height="16px" xml:space="preserve" xmlns="http://www.w3.org/2000/svg">
  <path d="m10 4h-6c-1.11 0-2 .89-2 2v12c0 1.097.903 2 2 2h16c1.097 0 2-.903 2-2v-10c0-1.11-.9-2-2-2h-8l-2-2z" fill="#2E7D32" fill-rule="nonzero" data-folderColor="Migrations"/>
  <path d="M17.5 9.1c3 0 5.5 1 5.5 2.3s-2.5 2.3-5.5 2.3-5.5-1-5.5-2.3 2.5-2.3 5.5-2.3zm-5.5 3.8c.9 1 3 1.6 5.5 1.6s4.6-.6 5.5-1.6v2.2c0 1.3-2.5 2.3-5.5 2.3s-5.5-1-5.5-2.3v-2.2zm4.8 3.1h1.4v2.3h1.6l-2.3 2.3-2.3-2.3h1.6V16z" fill="#C8E6C9" data-folderIconColor="Migrations"/>
</svg>
