<svg clip-rule="evenodd" fill-rule="evenodd" stroke-linejoin="round" stroke-miterlimit="1.4142" version="1.1"
     viewBox="0 0 24 24" width="16px" height="16px" xml:space="preserve" xmlns="http://www.w3.org/2000/svg">
  <path d="m10 4h-6c-1.11 0-2 .89-2 2v12c0 1.097.903 2 2 2h16c1.097 0 2-.903 2-2v-10c0-1.11-.9-2-2-2h-8l-2-2z"
        fill="#3949AB" fill-rule="nonzero" data-folderColor="Repo"/>
  <path d="M14 9.2a1.9 1.9 0 1 0 0 3.8c.22 0 .43-.04.63-.11l2.07 2.07a1.9 1.9 0 0 0 0 1.08l-2.07 2.07A1.9 1.9 0 1 0 15.9 19.5l2.07-2.07A1.9 1.9 0 1 0 19.5 14.1c-.22 0-.43.04-.63.11l-2.07-2.07a1.9 1.9 0 0 0-1.8-2.95zm0 1.3a.6.6 0 1 1 0 1.2.6.6 0 0 1 0-1.2zm5.5 4.9a.6.6 0 1 1 0 1.2.6.6 0 0 1 0-1.2zM14 19.3a.6.6 0 1 1 0 1.2.6.6 0 0 1 0-1.2z"
        fill="#C5CAE9" data-folderIconColor="Repo"/>
</svg>
