<svg clip-rule="evenodd" fill-rule="evenodd" stroke-linejoin="round" stroke-miterlimit="1.4142" version="1.1" viewBox="0 0 24 24" width="16px" height="16px" xml:space="preserve" xmlns="http://www.w3.org/2000/svg">
  <path d="m10 4h-6c-1.11 0-2 .89-2 2v12c0 1.097.903 2 2 2h16c1.097 0 2-.903 2-2v-10c0-1.11-.9-2-2-2h-8l-2-2z" fill="#0288D1" fill-rule="nonzero" data-folderColor="Validators"/>
  <path d="M17.5 9.2 23 11.4v3.8c0 3.1-2.3 5.1-5.5 6.2-3.2-1.1-5.5-3.1-5.5-6.2v-3.8l5.5-2.2zm-1.1 7.6 4.1-4.2 1.2 1.2-5.3 5.4-3-3 1.2-1.2 1.8 1.8z" fill="#B3E5FC" data-folderIconColor="Validators"/>
</svg>
