<svg clip-rule="evenodd" fill-rule="evenodd" stroke-linejoin="round" stroke-miterlimit="1.4142" version="1.1" viewBox="0 0 24 24" width="16px" height="16px" xml:space="preserve" xmlns="http://www.w3.org/2000/svg">
  <path d="m10 4h-6c-1.11 0-2 .89-2 2v12c0 1.097.903 2 2 2h16c1.097 0 2-.903 2-2v-10c0-1.11-.9-2-2-2h-8l-2-2z" fill="#1565C0" fill-rule="nonzero" data-folderColor="wwwroot"/>
  <path d="M17.5 9.2a5.8 5.8 0 1 1 0 11.6 5.8 5.8 0 0 1 0-11.6zm0 1.5c-.7.9-1.1 2.1-1.2 3.5h2.4c-.1-1.4-.5-2.6-1.2-3.5zm-2.8.9a4.3 4.3 0 0 0-1.4 2.6h1.6c.1-.9.3-1.8.6-2.6h-.8zm4.8 0c.3.8.5 1.7.6 2.6h1.6a4.3 4.3 0 0 0-1.4-2.6h-.8zm-6.2 4.1a4.3 4.3 0 0 0 1.4 2.7h.8c-.3-.8-.5-1.7-.6-2.7h-1.6zm3 0c.1 1.4.5 2.7 1.2 3.6.7-.9 1.1-2.2 1.2-3.6h-2.4zm3.8 0c-.1 1-.3 1.9-.6 2.7h.8a4.3 4.3 0 0 0 1.4-2.7h-1.6z" fill="#BBDEFB" data-folderIconColor="wwwroot"/>
</svg>
